<svg xmlns="http://www.w3.org/2000/svg" viewBox="0 0 51.384 51.385">
    <title>Asset 1</title>
    <g id="Layer_2" data-name="Layer 2">
        <g id="Layer_1-2" data-name="Layer 1">
            <path d="M46.76,20.145H31.239V4.624A4.638,4.638,0,0,0,26.615,0H24.769a4.638,4.638,0,0,0-4.624,4.624V20.145H4.624A4.638,4.638,0,0,0,0,24.77v1.846A4.638,4.638,0,0,0,4.624,31.24H20.145V46.76a4.638,4.638,0,0,0,4.624,4.625h1.846a4.638,4.638,0,0,0,4.624-4.625V31.24H46.76a4.638,4.638,0,0,0,4.624-4.624V24.77a4.638,4.638,0,0,0-4.624-4.625"
                  style="fill:#65616f"/>
        </g>
    </g>
</svg>