<svg xmlns="http://www.w3.org/2000/svg" viewBox="0 0 124.935 124.999">
    <title>Asset 5</title>
    <g id="Layer_2" data-name="Layer 2">
        <g id="Layer_1-2" data-name="Layer 1">
            <path d="M109.463,0a42.471,42.471,0,0,1,5.112,1.532,17.44,17.44,0,0,1,5.778,27.715c-1.414,1.533-2.535,1.564-4.029.082q-3.728-3.7-7.439-7.418c-.283-.283-.583-.551-.888-.839l-3.458,3.611c12.383,13.533,18.021,29.534,15.52,47.932-2.5,18.417-12.276,32.3-28.05,42.274,1.776,1.764,3.524,3.5,5.272,5.241.375.373.765.735,1.117,1.129a2.135,2.135,0,0,1,.013,3.154,2.107,2.107,0,0,1-3.061-.156c-2.183-2.135-4.365-4.274-6.475-6.48a1.446,1.446,0,0,0-1.971-.337q-24.477,10.932-48.947-.059a1.3,1.3,0,0,0-1.762.331c-2.066,2.136-4.188,4.219-6.3,6.311-1.165,1.153-2.379,1.277-3.331.376-1-.948-.9-2.209.3-3.415,2.008-2.019,4.032-4.022,6.12-6.1-15.7-9.9-25.5-23.754-28.034-42.153s3.065-34.419,15.564-48.1l-3.642-3.417c-.134.123-.46.4-.764.705q-3.72,3.708-7.436,7.421c-1.479,1.472-2.656,1.475-4.026-.1C.152,24.09-1.164,18.183,1.057,11.744S8.006,1.513,14.724.231C15,.178,15.262.078,15.531,0H19.69a6.228,6.228,0,0,0,.788.244,17.182,17.182,0,0,1,9.127,4.594,2.181,2.181,0,0,1,.09,3.5c-1.014,1.058-2.068,2.077-3.106,3.111-2.155,2.147-4.312,4.293-6.418,6.389l3.582,3.633c21.155-19.61,56.486-19.49,77.349-.133l3.627-3.584c-3.01-3-6.1-6.074-9.173-9.152-1.5-1.5-1.571-2.689.122-3.983a34.2,34.2,0,0,1,5.46-3.377A23.984,23.984,0,0,1,105.305,0ZM62.507,11.067a53.746,53.746,0,1,0,53.816,53.755A53.867,53.867,0,0,0,62.507,11.067M24.95,6.681c-4.488-3.751-12.423-3-16.924,1.658C3.09,13.451,3.6,21.079,6.757,24.838Q15.849,15.766,24.95,6.681m93.286,18.157c3.163-3.765,3.651-11.406-1.271-16.5-4.513-4.668-12.449-5.413-16.928-1.655l18.2,18.152"
                  style="fill:#fff"/>
            <path d="M112.024,64.864A49.575,49.575,0,0,1,62.292,114.25c-27.215-.1-49.476-22.464-49.32-49.555a49.526,49.526,0,0,1,99.052.169m-28.91,39.975c-.683-1.518-2.373-3.145-.248-4.511,2.39-1.537,3.023.955,4.121,2.352a45,45,0,0,0,13.447-13.433c-2.77-1.972-3.3-2.763-2.478-3.975,1.521-2.229,3.113-.563,4.715.14a43.965,43.965,0,0,0,4.892-18.424c-1.759-.146-4.016.407-4.085-2.086-.075-2.7,2.32-2.106,4.093-2.278a43.97,43.97,0,0,0-4.89-18.386c-3.087,1.408-4.066,1.478-4.7.17-1.179-2.444,1.037-3,2.479-4A45.062,45.062,0,0,0,86.957,26.932c-1.036,1.448-1.675,3.753-3.948,2.456-2.343-1.337-.593-3.073.143-4.665a44.541,44.541,0,0,0-18.491-4.916c0,.743.033,1.349-.007,1.95a2.159,2.159,0,1,1-4.318.006c-.04-.633-.007-1.27-.007-1.9-5.2-.154-15.8,2.768-18.411,5.038.292.522.612,1.041.881,1.585a2.145,2.145,0,1,1-3.746,2.09c-.342-.53-.649-1.081-.968-1.615-4.754,2.721-11.248,9.235-13.467,13.45a16.16,16.16,0,0,1,2.173,1.535,1.925,1.925,0,0,1,.222,2.479c-.712,1.239-1.588,1.2-4.711-.174A43.767,43.767,0,0,0,17.42,62.644c1.773.115,4.083-.412,4.1,2.156.014,2.594-2.3,2.047-4.091,2.186a43.715,43.715,0,0,0,4.926,18.472c.645-.369,1.131-.667,1.636-.931a2.147,2.147,0,1,1,2.2,3.681c-.53.345-1.082.659-1.619.985,3.016,5.016,9.581,11.518,13.517,13.4,1.006-1.293,1.612-3.729,3.955-2.32,2.246,1.351.545,3.033-.189,4.624a44.624,44.624,0,0,0,18.407,4.928c.212-1.718-.432-4.042,2.19-4.077,2.717-.037,2.068,2.349,2.288,3.981,4.459.309,14.1-2.246,18.378-4.887"
                  style="fill:#fff"/>
            <path d="M64.669,56.488a8.925,8.925,0,0,1,5.993,5.606c.109.294.737.559,1.126.563,4.483.039,8.967.024,13.451.026a10.117,10.117,0,0,1,1.22.036,2.107,2.107,0,0,1-.069,4.2,10.871,10.871,0,0,1-1.1.022c-4.484,0-8.967.014-13.45-.011a1.177,1.177,0,0,0-1.332.874,8.481,8.481,0,0,1-8.946,5.545,8.616,8.616,0,0,1-7.6-7.315,8.444,8.444,0,0,1,5.5-9.183c.812-.313.866-.761.864-1.457q-.024-9.945,0-19.891a4.97,4.97,0,0,1,.2-1.555,2.1,2.1,0,0,1,3.935.026,5.268,5.268,0,0,1,.192,1.556q.018,9.764.008,19.526ZM62.536,69.1a4.282,4.282,0,1,0-4.352-4.306A4.311,4.311,0,0,0,62.536,69.1"
                  style="fill:#fff"/>
        </g>
    </g>
</svg>