<svg xmlns="http://www.w3.org/2000/svg" viewBox="0 0 113.325 139.915">
    <title>Asset 1</title>
    <g id="Layer_2" data-name="Layer 2">
        <g id="Layer_1-2" data-name="Layer 1">
            <path d="M56.846,0Q74.024,0,91.2,0c2.6,0,3.783,1.165,3.647,3.712-.916,17.157,2.744,33.39,9.8,48.95,1.587,3.5,3.126,7.025,4.712,10.528a47.075,47.075,0,0,1,3.805,23.3c-1.423,19.044-8.4,36.021-19.5,51.421a4.439,4.439,0,0,1-3.967,2q-32.986-.056-65.975,0a4.361,4.361,0,0,1-3.85-1.931C10.167,124.867,3.547,110.4.9,94.253-.99,82.7-.054,71.48,5.13,60.751A151.266,151.266,0,0,0,15.171,35.224,100.094,100.094,0,0,0,18.64,4.257c-.135-3.21.84-4.255,4-4.255q17.1,0,34.2,0M15.988,51.779a95.673,95.673,0,0,0,48.7,8.71,93.022,93.022,0,0,0,32.8-8.732A113,113,0,0,1,88.674,6.182H24.79a113.115,113.115,0,0,1-8.8,45.6M7.166,73.653c-1.113,4.512-1.253,12.286-.513,17.709a91.4,91.4,0,0,0,16.861,41.332,2.406,2.406,0,0,0,2.233,1.137c8.818-.04,17.636-.023,26.453-.023h1.5c0-9.51.015-18.782-.04-28.053a2.414,2.414,0,0,0-.917-1.552c-2.164-1.755-4.4-3.423-6.6-5.131C37.538,92.4,29.027,85.578,19.57,80.114c-3.97-2.293-8.134-4.251-12.4-6.461m99.2.221c-2.139.964-4.085,1.707-5.9,2.687a93.774,93.774,0,0,0-10.393,5.95c-9.944,7.146-19.723,14.523-29.526,21.863a2.52,2.52,0,0,0-.732,1.8c-.046,8.761-.032,17.523-.028,26.285,0,.433.057.867.09,1.353,9.605,0,19.073.014,28.54-.04a2.1,2.1,0,0,0,1.36-.926c9.727-14.082,15.978-29.467,17.32-46.659a44.937,44.937,0,0,0-.728-12.308M8.571,67.883c.4.208.572.317.756.39A104.8,104.8,0,0,1,32.823,81.5c7.652,5.582,15.146,11.381,22.655,17.157a1.693,1.693,0,0,0,2.555-.034c2.671-2.175,5.427-4.245,8.15-6.355,8.852-6.859,17.717-13.709,27.6-19.059,3.549-1.921,7.239-3.581,11.053-5.452L100.09,57.407c-28.979,12.712-57.78,12.679-86.707,0L8.571,67.883"
                  style="fill:#65616f"/>
        </g>
    </g>
</svg>