<svg xmlns="http://www.w3.org/2000/svg" viewBox="0 0 200.436 139.108">
    <title>Asset 4</title>
    <g id="Layer_2" data-name="Layer 2">
        <g id="Layer_1-2" data-name="Layer 1">
            <path d="M3.08,100.964c3.1-8.314,10.294-13.643,19.11-13.449a37.006,37.006,0,0,0,16.607-3.4c6.44-2.944,13.059-5.5,19.634-8.14a1.942,1.942,0,0,0,1.441-2.3q-1.608-26.317-3.125-52.642c-.02-.324-.046-.649-.059-.975-.108-2.8,1.339-4.689,3.693-4.812s3.948,1.59,4.114,4.424q1.578,26.808,3.126,53.619a2.816,2.816,0,0,0,1.989,2.88,53.737,53.737,0,0,0,23.8,3.911V21c0-.586-.024-1.174.014-1.758a3.98,3.98,0,0,1,3.953-4,3.885,3.885,0,0,1,3.841,4.071c.018.455.008.912.008,1.367q0,51.088,0,102.175c0,4.309-1.089,5.385-5.444,5.385-23.509,0-47.018-.053-70.526.042a51.031,51.031,0,0,1-15.034-1.764,43.19,43.19,0,0,0-5.492-1.342A6.035,6.035,0,0,1,.357,122.31c-1.6-5.848,2.723-21.346,2.723-21.346m35-8.141a42.668,42.668,0,0,1,3.3,2.754,3.885,3.885,0,1,1-5.414,5.566,5.644,5.644,0,0,1-.966-.963c-2.938-4.307-6.98-5.365-12.069-5.042-12.734.1-15.085,13.032-16.261,22.437a78.478,78.478,0,0,0,16.47,2.067c22.595-.152,45.192-.068,67.788-.068h2.366V88.129A5.284,5.284,0,0,0,92.442,88a61.294,61.294,0,0,1-27.7-5.464,5.694,5.694,0,0,0-1.825-.145c.077.338.071.419.108.458,1.075,1.129,2.175,2.234,3.228,3.382,1.721,1.875,1.754,4.177.119,5.741a3.928,3.928,0,0,1-5.606-.211c-1.283-1.2-2.5-2.471-3.745-3.713-2.376-2.375-2.376-2.376-5.941-.387,1.256,1.12,2.462,2.094,3.548,3.186,1.938,1.95,2.048,4.193.385,5.875-1.6,1.625-3.976,1.5-5.887-.361-1.634-1.588-3.2-3.251-4.863-4.8a2.047,2.047,0,0,0-1.588-.569c-1.351.4-2.633,1.026-4.592,1.832"
                  style="fill:#fff"/>
            <path d="M173.848,54.912C167.9,38.932,162,23.092,156.1,7.252c-.273-.731-.578-1.454-.791-2.2A3.821,3.821,0,0,1,157.634.286a3.752,3.752,0,0,1,4.894,2c.584,1.229,1.016,2.533,1.492,3.812q8.847,23.762,17.7,47.522a18.914,18.914,0,0,0,1.336,2.81q7.641,13.281,15.32,26.54c3.79,6.559,2.343,12.035-4.19,15.807-20.169,11.648-40.306,23.354-60.551,34.87-2.827,1.608-6.175,2.32-9.31,3.363-2.1.7-4.235,1.268-6.366,1.856-2.2.608-3.7.086-4.847-1.827-1.937-3.239-4.332-6.339-5.55-9.84-2.046-5.886-3.493-12.042-1.567-18.344a19.807,19.807,0,0,1,10.4-12.344,29.369,29.369,0,0,0,10.727-9.4c4.474-6.161,9.2-12.14,13.928-18.115a2.876,2.876,0,0,0,.372-3.459Q131.7,43.925,122.078,22.26a16.779,16.779,0,0,1-.824-1.98,3.838,3.838,0,0,1,2.164-4.69,3.762,3.762,0,0,1,4.789,1.444,12,12,0,0,1,.864,1.745q9.665,21.642,19.293,43.3c.555,1.257,1.125,1.8,2.574,1.6a55.485,55.485,0,0,0,22.91-8.767m-55.084,74.867c3.518-1.245,7.319-2,10.521-3.819,19.97-11.318,39.807-22.871,59.686-34.349,1.111-.643,2.21-1.308,3.448-2.041-3.512-6.083-11.651-21.441-15.111-27.434a8.487,8.487,0,0,0-.8.364,61.27,61.27,0,0,1-26.7,9.122,5.562,5.562,0,0,0-1.667.769,24.46,24.46,0,0,0,4.594,1.685c2.45.75,3.656,2.668,3.1,4.852-.543,2.143-2.612,3.27-5.1,2.686-1.771-.415-3.514-.947-5.268-1.43C142.5,79.369,142,79.63,140.71,82.7c1.631.449,3.271.839,4.87,1.356a3.877,3.877,0,1,1-2.064,7.473c-2.338-.559-4.645-1.247-6.981-1.814-.514-.125-1.334-.2-1.6.082-1.031,1.105-1.9,2.366-2.921,3.7,1.728.5,3.128.809,4.461,1.3a3.779,3.779,0,0,1,2.4,4.715,3.9,3.9,0,0,1-4.573,2.717,7.217,7.217,0,0,1-1.69-.461c-4.614-2.176-8.387-.852-12.773,1.612-8.53,4.79-8.53,16.547-1.072,26.4"
                  style="fill:#fff"/>
        </g>
    </g>
</svg>