<svg xmlns="http://www.w3.org/2000/svg" viewBox="0 0 182.048 128.629">
    <title>Asset 18</title>
    <g id="Layer_2" data-name="Layer 2">
        <g id="Layer_1-2" data-name="Layer 1">
            <path d="M0,36.584c1.219-3,2.135-6.152,3.711-8.974,5.351-9.58,13.881-16,24.057-20.569A82.955,82.955,0,0,1,68.174.238c13.538.949,26.134,4.55,37.287,12.017,8.485,5.68,14.991,12.871,17.631,22.6a37.54,37.54,0,0,1,1.222,9.273c.143,10.855.055,21.713.055,32.57v2.2h2.2q25.335,0,50.67,0c3.459,0,4.807,1.281,4.808,4.586q0,20.315,0,40.629c0,3.194-1.361,4.475-4.738,4.475-38.995,0-77.991.13-116.986-.071-16.5-.085-31.789-4.35-44.88-14.259C7.9,108.553,2.433,101.471.3,92.382c-.034-.146-.194-.264-.3-.4Zm72.509,84.772c0-2.992-.013-5.886,0-8.778.015-2.512,1.549-4.152,3.82-4.128,2.217.022,3.713,1.6,3.745,4.034.034,2.518.057,5.037-.011,7.554-.03,1.1.352,1.467,1.52,1.441,2.961-.062,5.925-.02,8.888-.019h3.376v-2.147c0-4.868-.01-9.736.011-14.6a5.892,5.892,0,0,1,.262-1.971,3.8,3.8,0,0,1,3.92-2.309,3.635,3.635,0,0,1,3.351,3.54q.093,7.974.021,15.948c-.009,1.116.268,1.593,1.571,1.567,3.732-.073,7.468-.083,11.2.005,1.408.033,1.684-.481,1.653-1.668-.07-2.628-.073-5.261.025-7.888a3.769,3.769,0,0,1,7.527.188c.037,3.055.01,6.112.01,9.2h14.3c0-.688,0-1.241,0-1.8.006-2.462-.075-4.928.044-7.385a3.722,3.722,0,0,1,3.965-3.692,3.779,3.779,0,0,1,3.71,3.937c.023,1.063,0,2.126,0,3.19v5.772H159.68v-1.917c0-4.925-.1-9.852.075-14.77a5.939,5.939,0,0,1,1.617-3.485,3.212,3.212,0,0,1,3.795-.4,3.767,3.767,0,0,1,2.254,3.7c.016,4.98.006,9.961.007,14.94v1.859h6.786V86.15h-2.531c-35.792,0-71.584.073-107.375-.07a116.106,116.106,0,0,1-18.521-1.571A66.222,66.222,0,0,1,14.35,70.641L7.122,64.76l.365-.518v1.431c0,6.378.016,12.757,0,19.136A26.408,26.408,0,0,0,12.887,101c5.267,7.1,12.543,11.763,20.841,15.129A68.235,68.235,0,0,0,50.5,120.522c0-2.816-.021-5.5.006-8.175a3.818,3.818,0,0,1,7.628-.32c.117,1.391.05,2.8.055,4.194.006,1.7,0,3.407,0,5.135ZM62.174,7.3a74.063,74.063,0,0,0-20,2.447c-10.753,2.833-20.364,7.512-27.7,15.728C5.417,35.616,5,48.842,13.394,59.437A42.234,42.234,0,0,0,27.779,70.959C45.185,79.689,63.489,81,82.349,76.32c10.681-2.651,20.223-7.377,27.346-15.608,7.285-8.416,9.331-17.8,4.749-28.023-2.7-6.036-7.332-10.661-12.945-14.4C89.711,10.442,76.387,7.424,62.174,7.3M116.692,78.82V63.7A57.064,57.064,0,0,1,96.723,78.82Z"
                  style="fill:#65616f"/>
            <path d="M62.311,23.452c7.176.133,14.014,1.8,19.83,6.217,9.879,7.5,10.045,18.647.486,26.469-10.935,8.951-31.364,8.653-41.808-.609-9.036-8.012-8.223-19.46,1.842-26.337,5.821-3.977,12.38-5.645,19.65-5.74M61.45,55.443c6.065,0,11.17-1.19,15.589-4.333,3.347-2.381,5.566-5.392,4.73-9.613-.6-3.045-2.7-5.172-5.3-6.866-4.715-3.077-10.061-4.077-15.669-3.9a24.4,24.4,0,0,0-13.735,4.347c-6.446,4.6-6.437,11.423.008,15.994A24.881,24.881,0,0,0,61.45,55.443"
                  style="fill:#65616f"/>
        </g>
    </g>
</svg>