<svg xmlns="http://www.w3.org/2000/svg" viewBox="0 0 125.579 150.757">
    <title>Asset 15</title>
    <g id="Layer_2" data-name="Layer 2">
        <g id="Layer_1-2" data-name="Layer 1">
            <path d="M60.73,150.757a18.523,18.523,0,0,1-8.034-3.7c-4.549-3.991-6.189-9.03-5.354-15.146H45.585q-20.757,0-41.513.012c-1.5,0-2.868-.178-3.675-1.621s-.264-2.7.516-3.988c3.305-5.448,6.535-10.943,9.855-16.384a54.528,54.528,0,0,0,8.08-29.083c-.012-5.446-.065-10.894.044-16.34A43.806,43.806,0,0,1,48.415,24.457,2.2,2.2,0,0,0,50.247,21.9a95.381,95.381,0,0,1,.18-11.026,12.464,12.464,0,0,1,24.722-.016c.353,3.8.218,7.644.2,11.468a1.705,1.705,0,0,0,1.392,1.959,43.812,43.812,0,0,1,29.964,40.945c.136,6.572-.035,13.154.224,19.72a50.99,50.99,0,0,0,7.583,24.457c3.4,5.676,6.792,11.361,10.223,17.02.759,1.252,1.211,2.489.452,3.861s-2.051,1.637-3.518,1.635q-20.83-.032-41.661-.012H78.578c-.188,2.391-.037,4.748-.608,6.913-1.675,6.343-5.866,10.239-12.311,11.652a7.266,7.266,0,0,0-.807.279Zm56.136-25.167c-.4-.7-.664-1.154-.936-1.607q-3.366-5.613-6.735-11.224a56.416,56.416,0,0,1-8.43-26.191c-.365-6.607-.165-13.241-.306-19.862a53.411,53.411,0,0,0-.573-7.173C96.744,39.664,77.105,25.452,57.3,28.652A37.725,37.725,0,0,0,25.1,66.4c-.009,5.3.036,10.6-.016,15.9a55.93,55.93,0,0,1-6.078,25.518c-2.882,5.563-6.268,10.865-9.425,16.286-.255.439-.484.893-.808,1.491Zm-54.048,6.323c-2.6,0-5.193.044-7.787-.024-.95-.025-1.248.328-1.435,1.2a9.408,9.408,0,1,0,18.381-.1c-.19-.841-.531-1.111-1.372-1.1-2.595.047-5.191.018-7.787.018M69,22.185c0-3.475.121-6.954-.037-10.422a6.094,6.094,0,0,0-5.934-5.49c-2.963-.157-6.1,2.087-6.324,5.027-.275,3.641-.065,7.319-.065,10.885Z"
                  style="fill:#fff"/>
        </g>
    </g>
</svg>